<svg width="98" height="18" viewBox="0 0 98 18" fill="none" xmlns="http://www.w3.org/2000/svg">
<path d="M1.69998 13.3C1.31998 13.3 0.999976 13.18 0.739976 12.94C0.479976 12.7 0.349976 12.4 0.349976 12.04V1.98995C0.349976 1.60995 0.479976 1.29995 0.739976 1.05995C0.999976 0.819951 1.31998 0.699951 1.69998 0.699951C2.09998 0.699951 2.41998 0.819951 2.65998 1.05995C2.91998 1.29995 3.04998 1.60995 3.04998 1.98995V4.86995C3.04998 5.26995 3.24998 5.46995 3.64998 5.46995H7.69998C8.09998 5.46995 8.29998 5.26995 8.29998 4.86995V1.98995C8.29998 1.60995 8.41998 1.29995 8.65998 1.05995C8.91998 0.819951 9.24998 0.699951 9.64998 0.699951C10.05 0.699951 10.37 0.819951 10.61 1.05995C10.87 1.29995 11 1.60995 11 1.98995V12.04C11 12.42 10.87 12.73 10.61 12.97C10.37 13.19 10.05 13.3 9.64998 13.3C9.26998 13.3 8.94998 13.19 8.68998 12.97C8.42998 12.73 8.29998 12.42 8.29998 12.04V8.52995C8.29998 8.12995 8.09998 7.92995 7.69998 7.92995H3.64998C3.24998 7.92995 3.04998 8.12995 3.04998 8.52995V12.04C3.04998 12.42 2.91998 12.73 2.65998 12.97C2.41998 13.19 2.09998 13.3 1.69998 13.3Z" fill="#D7AE75"/>
<path d="M17.4594 13.3C16.1194 13.3 15.0294 12.88 14.1894 12.04C13.3694 11.18 12.9594 10.04 12.9594 8.61995C12.9594 7.19995 13.3594 6.07995 14.1594 5.25995C14.9794 4.41995 16.0494 3.99995 17.3694 3.99995C18.3094 3.99995 19.1294 4.32995 19.8294 4.98995C19.9094 4.74995 20.0594 4.54995 20.2794 4.38995C20.4994 4.22995 20.7594 4.14995 21.0594 4.14995C21.4594 4.14995 21.7794 4.26995 22.0194 4.50995C22.2794 4.72995 22.4094 4.99995 22.4094 5.31995V12.13C22.4094 12.47 22.2794 12.75 22.0194 12.97C21.7794 13.19 21.4594 13.3 21.0594 13.3C20.3994 13.3 19.9894 13.01 19.8294 12.43C19.1894 13.01 18.3994 13.3 17.4594 13.3ZM17.6693 10.87C18.3093 10.87 18.8194 10.66 19.1994 10.24C19.5794 9.79995 19.7694 9.25995 19.7694 8.61995C19.7694 7.95995 19.5794 7.42995 19.1994 7.02995C18.8194 6.62995 18.3093 6.42995 17.6693 6.42995C17.0493 6.42995 16.5394 6.62995 16.1394 7.02995C15.7594 7.42995 15.5694 7.95995 15.5694 8.61995C15.5694 9.25995 15.7594 9.79995 16.1394 10.24C16.5394 10.66 17.0493 10.87 17.6693 10.87Z" fill="#D7AE75"/>
<path d="M32.1929 13.3C31.8129 13.3 31.4929 13.19 31.2329 12.97C30.9929 12.75 30.8729 12.47 30.8729 12.13V8.46995C30.8729 7.72995 30.7029 7.19995 30.3629 6.87995C30.0429 6.55995 29.6429 6.39995 29.1629 6.39995C28.6629 6.39995 28.2429 6.55995 27.9029 6.87995C27.5829 7.19995 27.3829 7.56995 27.3029 7.98995V12.01C27.3029 12.35 27.1729 12.64 26.9129 12.88C26.6729 13.1 26.3729 13.21 26.0129 13.21C25.6329 13.21 25.3129 13.1 25.0529 12.88C24.7929 12.66 24.6629 12.38 24.6629 12.04V5.31995C24.6629 4.99995 24.7829 4.72995 25.0229 4.50995C25.2829 4.26995 25.6129 4.14995 26.0129 4.14995C26.3329 4.14995 26.6029 4.23995 26.8229 4.41995C27.0429 4.57995 27.1929 4.78995 27.2729 5.04995C27.8129 4.34995 28.6329 3.99995 29.7329 3.99995C30.8529 3.99995 31.7629 4.32995 32.4629 4.98995C33.1629 5.64995 33.5129 6.69995 33.5129 8.13995V12.19C33.5129 12.51 33.3829 12.78 33.1229 13C32.8829 13.2 32.5729 13.3 32.1929 13.3Z" fill="#D7AE75"/>
<path d="M39.5464 17.35C38.9864 17.35 38.4464 17.29 37.9264 17.17C37.4064 17.07 36.9364 16.91 36.5164 16.69C36.0364 16.43 35.7964 16.03 35.7964 15.49C35.7964 15.15 35.9164 14.85 36.1564 14.59C36.3964 14.35 36.6764 14.23 36.9964 14.23C37.2564 14.23 37.4864 14.29 37.6864 14.41C38.0064 14.59 38.3364 14.72 38.6764 14.8C39.0364 14.88 39.3864 14.92 39.7264 14.92C40.4864 14.92 41.0464 14.75 41.4064 14.41C41.7864 14.07 41.9764 13.62 41.9764 13.06V12.37C41.3364 12.99 40.5464 13.3 39.6064 13.3C38.2664 13.3 37.1864 12.88 36.3664 12.04C35.5664 11.18 35.1664 10.04 35.1664 8.61995C35.1664 7.19995 35.5564 6.07995 36.3364 5.25995C37.1364 4.41995 38.1964 3.99995 39.5164 3.99995C40.4764 3.99995 41.3064 4.36995 42.0064 5.10995C42.0664 4.82995 42.2064 4.59995 42.4264 4.41995C42.6664 4.23995 42.9564 4.14995 43.2964 4.14995C43.6964 4.14995 44.0164 4.26995 44.2564 4.50995C44.4964 4.74995 44.6164 5.04995 44.6164 5.40995V13.12C44.6164 14.4 44.1664 15.42 43.2664 16.18C42.3864 16.96 41.1464 17.35 39.5464 17.35ZM39.8164 10.87C40.4164 10.87 40.8964 10.66 41.2564 10.24C41.6364 9.79995 41.8264 9.25995 41.8264 8.61995C41.8264 7.95995 41.6364 7.42995 41.2564 7.02995C40.8964 6.62995 40.4164 6.42995 39.8164 6.42995C39.1964 6.42995 38.6964 6.62995 38.3164 7.02995C37.9564 7.42995 37.7764 7.95995 37.7764 8.61995C37.7764 9.25995 37.9564 9.79995 38.3164 10.24C38.6964 10.66 39.1964 10.87 39.8164 10.87Z" fill="#D7AE75"/>
<path d="M48.9134 13C48.2934 13 47.7934 12.83 47.4134 12.49C47.0534 12.13 46.8734 11.66 46.8734 11.08V2.70995C46.8734 2.12995 47.0434 1.67995 47.3834 1.35995C47.7234 1.01995 48.1734 0.849951 48.7334 0.849951H51.4634C52.7834 0.849951 53.9034 1.11995 54.8234 1.65995C55.7434 2.17995 56.4434 2.89995 56.9234 3.81995C57.4234 4.71995 57.6734 5.74995 57.6734 6.90995C57.6734 8.10995 57.4234 9.16995 56.9234 10.09C56.4234 11.01 55.7434 11.73 54.8834 12.25C54.0234 12.75 53.0634 13 52.0034 13H48.9134ZM50.3234 10.6H51.4934C52.6334 10.6 53.5034 10.28 54.1034 9.63995C54.7034 8.97995 54.9934 8.06995 54.9734 6.90995C54.9534 5.70995 54.6434 4.79995 54.0434 4.17995C53.4434 3.55995 52.5834 3.24995 51.4634 3.24995H50.3234C49.8234 3.24995 49.5734 3.49995 49.5734 3.99995V9.84995C49.5734 10.35 49.8234 10.6 50.3234 10.6Z" fill="#87AA8C"/>
<path d="M61.084 13.3C60.724 13.3 60.414 13.18 60.154 12.94C59.894 12.68 59.764 12.38 59.764 12.04V2.79995C59.764 2.21995 59.944 1.74995 60.304 1.38995C60.684 1.02995 61.184 0.849951 61.804 0.849951H64.804C66.024 0.849951 67.004 1.20995 67.744 1.92995C68.504 2.64995 68.884 3.54995 68.884 4.62995C68.884 5.26995 68.714 5.86995 68.374 6.42995C68.034 6.98995 67.544 7.43995 66.904 7.77995C67.184 7.91995 67.434 8.10995 67.654 8.34995C67.894 8.58995 68.084 8.87995 68.224 9.21995L69.214 11.5C69.314 11.74 69.364 11.94 69.364 12.1C69.364 12.46 69.224 12.76 68.944 13C68.664 13.22 68.354 13.33 68.014 13.33C67.794 13.33 67.574 13.27 67.354 13.15C67.154 13.03 66.994 12.84 66.874 12.58L65.734 9.84995C65.534 9.36995 65.264 9.02995 64.924 8.82995C64.604 8.60995 64.224 8.49995 63.784 8.49995H63.004C62.604 8.49995 62.404 8.69995 62.404 9.09995V12.04C62.404 12.38 62.274 12.68 62.014 12.94C61.754 13.18 61.444 13.3 61.084 13.3ZM62.854 6.24995H64.684C65.184 6.24995 65.574 6.10995 65.854 5.82995C66.154 5.54995 66.304 5.18995 66.304 4.74995C66.304 4.28995 66.154 3.92995 65.854 3.66995C65.574 3.38995 65.184 3.24995 64.684 3.24995H62.854C62.554 3.24995 62.404 3.39995 62.404 3.69995V5.79995C62.404 6.09995 62.554 6.24995 62.854 6.24995Z" fill="#87AA8C"/>
<path d="M78.9605 1.98995C78.9605 1.62995 79.0905 1.32995 79.3505 1.08995C79.6105 0.829951 79.9305 0.699951 80.3105 0.699951C80.6905 0.699951 81.0105 0.819951 81.2705 1.05995C81.5305 1.29995 81.6605 1.60995 81.6605 1.98995V8.49995C81.6605 9.95995 81.1805 11.13 80.2205 12.01C79.2605 12.87 77.9805 13.3 76.3805 13.3C74.8005 13.3 73.5305 12.87 72.5705 12.01C71.6305 11.13 71.1605 9.95995 71.1605 8.49995V1.98995C71.1605 1.60995 71.2805 1.30995 71.5205 1.08995C71.7805 0.849952 72.1105 0.729952 72.5105 0.729952C72.9105 0.729952 73.2305 0.849952 73.4705 1.08995C73.7305 1.30995 73.8605 1.60995 73.8605 1.98995V8.49995C73.8605 9.19995 74.0905 9.76995 74.5505 10.21C75.0105 10.63 75.6205 10.84 76.3805 10.84C77.1605 10.84 77.7805 10.63 78.2405 10.21C78.7205 9.76995 78.9605 9.19995 78.9605 8.49995V1.98995Z" fill="#87AA8C"/>
<path d="M85.2434 13.3C84.8434 13.3 84.5034 13.15 84.2234 12.85C83.9634 12.55 83.8634 12.2 83.9234 11.8L85.1834 2.16995C85.2434 1.72995 85.4234 1.37995 85.7234 1.11995C86.0234 0.839951 86.3834 0.699951 86.8034 0.699951C87.6634 0.699951 88.2234 1.06995 88.4834 1.80995L90.5234 7.68995C90.6234 7.88995 90.7234 7.98995 90.8234 7.98995C90.9634 7.98995 91.0634 7.88995 91.1234 7.68995L93.1634 1.80995C93.4234 1.06995 93.9734 0.699951 94.8134 0.699951C95.2734 0.699951 95.6434 0.839951 95.9234 1.11995C96.2234 1.37995 96.4034 1.72995 96.4634 2.16995L97.7234 11.8C97.7834 12.2 97.6734 12.55 97.3934 12.85C97.1334 13.15 96.8034 13.3 96.4034 13.3C96.0434 13.3 95.7334 13.19 95.4734 12.97C95.2334 12.73 95.0934 12.43 95.0534 12.07L94.6034 5.79995C94.5834 5.55995 94.5034 5.43995 94.3634 5.43995C94.2234 5.43995 94.1234 5.53995 94.0634 5.73995L92.3234 10.63C92.0434 11.37 91.5434 11.74 90.8234 11.74C90.5434 11.74 90.2634 11.64 89.9834 11.44C89.7234 11.24 89.5134 10.98 89.3534 10.66L87.6134 5.79995C87.5534 5.61995 87.4534 5.52995 87.3134 5.52995C87.1934 5.52995 87.1134 5.64995 87.0734 5.88995L86.5934 12.07C86.5734 12.43 86.4334 12.73 86.1734 12.97C85.9134 13.19 85.6034 13.3 85.2434 13.3Z" fill="#87AA8C"/>
<path fill-rule="evenodd" clip-rule="evenodd" d="M13 2C13 1.44772 13.4477 1 14 1H44C44.5523 1 45 1.44772 45 2C45 2.55228 44.5523 3 44 3H14C13.4477 3 13 2.55228 13 2Z" fill="#D7AE75"/>
</svg>
