<svg width="118" height="16" viewBox="0 0 118 16" fill="none" xmlns="http://www.w3.org/2000/svg">
<path d="M6.15203 12.144C5.68269 12.144 5.32003 12.016 5.06403 11.76C4.80803 11.4933 4.68003 11.1253 4.68003 10.656V3.11997H2.16803C1.77336 3.11997 1.46936 3.01864 1.25603 2.81597C1.05336 2.60264 0.952026 2.30397 0.952026 1.91997C0.952026 1.5253 1.05336 1.22664 1.25603 1.02397C1.46936 0.821304 1.77336 0.719971 2.16803 0.719971H10.136C10.5307 0.719971 10.8294 0.821304 11.032 1.02397C11.2454 1.22664 11.352 1.5253 11.352 1.91997C11.352 2.30397 11.2454 2.60264 11.032 2.81597C10.8294 3.01864 10.5307 3.11997 10.136 3.11997H7.62403V10.656C7.62403 11.1253 7.50136 11.4933 7.25603 11.76C7.01069 12.016 6.64269 12.144 6.15203 12.144Z" fill="#D7AE75"/>
<path d="M14.8473 12.176C13.9726 12.176 13.2099 12.0106 12.5593 11.68C11.9086 11.3493 11.4019 10.8746 11.0393 10.256C10.6766 9.6373 10.4953 8.90664 10.4953 8.06397C10.4953 7.42397 10.5966 6.8533 10.7993 6.35197C11.0019 5.83997 11.2953 5.40797 11.6793 5.05597C12.0633 4.6933 12.5219 4.4213 13.0553 4.23997C13.5886 4.04797 14.1859 3.95197 14.8473 3.95197C15.7219 3.95197 16.4846 4.1173 17.1353 4.44797C17.7859 4.77864 18.2873 5.2533 18.6393 5.87197C19.0019 6.47997 19.1833 7.21064 19.1833 8.06397C19.1833 8.6933 19.0819 9.26397 18.8793 9.77597C18.6766 10.288 18.3833 10.7253 17.9993 11.088C17.6259 11.44 17.1673 11.712 16.6233 11.904C16.0899 12.0853 15.4979 12.176 14.8473 12.176ZM14.8473 10.08C15.1353 10.08 15.3913 10.0106 15.6153 9.87197C15.8393 9.72264 16.0099 9.50397 16.1273 9.21597C16.2553 8.9173 16.3193 8.5333 16.3193 8.06397C16.3193 7.3493 16.1806 6.8373 15.9033 6.52797C15.6259 6.20797 15.2739 6.04797 14.8473 6.04797C14.5593 6.04797 14.3033 6.1173 14.0793 6.25597C13.8553 6.39464 13.6793 6.6133 13.5513 6.91197C13.4233 7.19997 13.3593 7.58397 13.3593 8.06397C13.3593 8.76797 13.4979 9.27997 13.7753 9.59997C14.0526 9.91997 14.4099 10.08 14.8473 10.08Z" fill="#D7AE75"/>
<path d="M21.8963 12.144C21.4483 12.144 21.1016 12.0213 20.8563 11.776C20.6109 11.5306 20.4883 11.1733 20.4883 10.704V5.40797C20.4883 4.9493 20.6056 4.5973 20.8403 4.35197C21.0856 4.10664 21.4323 3.98397 21.8803 3.98397C22.3283 3.98397 22.6696 4.10664 22.9043 4.35197C23.1389 4.5973 23.2563 4.9493 23.2563 5.40797V6.15997L23.0803 5.50397C23.3363 5.00264 23.6989 4.61864 24.1683 4.35197C24.6483 4.0853 25.1923 3.95197 25.8003 3.95197C26.4296 3.95197 26.9469 4.07464 27.3523 4.31997C27.7576 4.55464 28.0616 4.92797 28.2643 5.43997C28.4669 5.9413 28.5683 6.57597 28.5683 7.34397V10.704C28.5683 11.1733 28.4456 11.5306 28.2003 11.776C27.9549 12.0213 27.6029 12.144 27.1443 12.144C26.6856 12.144 26.3336 12.0213 26.0883 11.776C25.8429 11.5306 25.7203 11.1733 25.7203 10.704V7.45597C25.7203 6.97597 25.6349 6.63464 25.4643 6.43197C25.3043 6.2293 25.0643 6.12797 24.7443 6.12797C24.3176 6.12797 23.9763 6.26664 23.7203 6.54397C23.4643 6.81064 23.3363 7.1733 23.3363 7.63197V10.704C23.3363 11.664 22.8563 12.144 21.8963 12.144Z" fill="#D7AE75"/>
<path d="M34.0954 15.056C33.5087 15.056 32.9594 15.0133 32.4474 14.928C31.9354 14.8533 31.4927 14.7413 31.1194 14.592C30.8101 14.4853 30.5914 14.3306 30.4634 14.128C30.3354 13.9253 30.2767 13.712 30.2874 13.488C30.2981 13.264 30.3567 13.0613 30.4634 12.88C30.5807 12.6986 30.7354 12.5653 30.9274 12.48C31.1194 12.4053 31.3327 12.4106 31.5674 12.496C32.0367 12.688 32.4634 12.8106 32.8474 12.864C33.2314 12.928 33.5567 12.96 33.8234 12.96C34.4741 12.96 34.9594 12.8213 35.2794 12.544C35.6101 12.2773 35.7754 11.856 35.7754 11.28V10.272H35.9034C35.7434 10.72 35.4181 11.088 34.9274 11.376C34.4367 11.6533 33.9034 11.792 33.3274 11.792C32.6234 11.792 32.0101 11.632 31.4874 11.312C30.9647 10.9813 30.5541 10.5226 30.2554 9.93597C29.9674 9.3493 29.8234 8.6613 29.8234 7.87197C29.8234 7.27464 29.9087 6.73597 30.0794 6.25597C30.2501 5.77597 30.4847 5.3653 30.7834 5.02397C31.0927 4.68264 31.4607 4.4213 31.8874 4.23997C32.3247 4.04797 32.8047 3.95197 33.3274 3.95197C33.9247 3.95197 34.4581 4.09064 34.9274 4.36797C35.4074 4.6453 35.7274 5.00797 35.8874 5.45597L35.7274 6.11197V5.40797C35.7274 4.9493 35.8501 4.5973 36.0954 4.35197C36.3514 4.10664 36.7034 3.98397 37.1514 3.98397C37.5994 3.98397 37.9407 4.10664 38.1754 4.35197C38.4207 4.5973 38.5434 4.9493 38.5434 5.40797V10.944C38.5434 12.3093 38.1594 13.3333 37.3914 14.016C36.6234 14.7093 35.5247 15.056 34.0954 15.056ZM34.2074 9.69597C34.5274 9.69597 34.7994 9.62664 35.0234 9.48797C35.2474 9.33864 35.4234 9.13064 35.5514 8.86397C35.6794 8.58664 35.7434 8.25597 35.7434 7.87197C35.7434 7.29597 35.6047 6.84797 35.3274 6.52797C35.0501 6.20797 34.6767 6.04797 34.2074 6.04797C33.9087 6.04797 33.6421 6.12264 33.4074 6.27197C33.1727 6.41064 32.9914 6.61864 32.8634 6.89597C32.7461 7.16264 32.6874 7.48797 32.6874 7.87197C32.6874 8.44797 32.8261 8.89597 33.1034 9.21597C33.3807 9.53597 33.7487 9.69597 34.2074 9.69597Z" fill="#D7AE75"/>
<path d="M43.151 12.176C42.4684 12.176 41.9084 12.0533 41.471 11.808C41.0337 11.552 40.703 11.1733 40.479 10.672C40.2657 10.1706 40.159 9.53597 40.159 8.76797V5.40797C40.159 4.93864 40.2817 4.58664 40.527 4.35197C40.7724 4.10664 41.1244 3.98397 41.583 3.98397C42.0417 3.98397 42.3937 4.10664 42.639 4.35197C42.8844 4.58664 43.007 4.93864 43.007 5.40797V8.84797C43.007 9.23197 43.087 9.51997 43.247 9.71197C43.407 9.90397 43.6577 9.99997 43.999 9.99997C44.383 9.99997 44.6977 9.8613 44.943 9.58397C45.1884 9.30664 45.311 8.93864 45.311 8.47997V5.40797C45.311 4.93864 45.4337 4.58664 45.679 4.35197C45.9244 4.10664 46.2764 3.98397 46.735 3.98397C47.1937 3.98397 47.5457 4.10664 47.791 4.35197C48.0364 4.58664 48.159 4.93864 48.159 5.40797V10.704C48.159 11.664 47.7004 12.144 46.783 12.144C46.335 12.144 45.9884 12.0213 45.743 11.776C45.4977 11.5306 45.375 11.1733 45.375 10.704V9.77597L45.631 10.56C45.3964 11.0826 45.0657 11.4826 44.639 11.76C44.223 12.0373 43.727 12.176 43.151 12.176Z" fill="#D7AE75"/>
<path d="M54.1044 12.176C53.1444 12.176 52.3124 12.0106 51.6084 11.68C50.9151 11.3386 50.3817 10.8586 50.0084 10.24C49.6351 9.6213 49.4484 8.89064 49.4484 8.04797C49.4484 7.2373 49.6244 6.52797 49.9764 5.91997C50.3391 5.3013 50.8297 4.8213 51.4484 4.47997C52.0777 4.12797 52.7924 3.95197 53.5924 3.95197C54.1791 3.95197 54.7124 4.04797 55.1924 4.23997C55.6724 4.4213 56.0831 4.6933 56.4244 5.05597C56.7657 5.40797 57.0217 5.83464 57.1924 6.33597C57.3737 6.8373 57.4644 7.3973 57.4644 8.01597C57.4644 8.2293 57.4057 8.3893 57.2884 8.49597C57.1711 8.59197 56.9844 8.63997 56.7284 8.63997H51.8324V7.29597H55.3844L55.1284 7.50397C55.1284 7.1093 55.0751 6.7893 54.9684 6.54397C54.8617 6.29864 54.7017 6.11197 54.4884 5.98397C54.2857 5.85597 54.0297 5.79197 53.7204 5.79197C53.3897 5.79197 53.1017 5.87197 52.8564 6.03197C52.6217 6.1813 52.4404 6.4053 52.3124 6.70397C52.1844 7.00264 52.1204 7.37597 52.1204 7.82397V7.96797C52.1204 8.7253 52.2857 9.26931 52.6164 9.59997C52.9577 9.91997 53.4804 10.08 54.1844 10.08C54.4191 10.08 54.6857 10.0533 54.9844 9.99997C55.2937 9.93597 55.5871 9.85064 55.8644 9.74397C56.1417 9.6373 56.3817 9.6213 56.5844 9.69597C56.7871 9.75997 56.9417 9.87731 57.0484 10.048C57.1657 10.208 57.2297 10.3946 57.2404 10.608C57.2511 10.8106 57.2031 11.0133 57.0964 11.216C56.9897 11.408 56.8137 11.5573 56.5684 11.664C56.1951 11.8346 55.7951 11.9626 55.3684 12.048C54.9524 12.1333 54.5311 12.176 54.1044 12.176Z" fill="#D7AE75"/>
<path d="M60.4194 11.9999C59.9181 11.9999 59.5341 11.8719 59.2674 11.6159C59.0114 11.3493 58.8834 10.9706 58.8834 10.4799V6.35995V2.23995C58.8834 1.74928 59.0114 1.37595 59.2674 1.11995C59.5341 0.853278 59.9181 0.719945 60.4194 0.719945H63.5554C65.5181 0.719945 67.0328 1.21061 68.0994 2.19195C69.1768 3.17328 69.7154 4.55995 69.7154 6.35195C69.7154 7.24795 69.5768 8.04795 69.2994 8.75195C69.0221 9.44528 68.6221 10.0373 68.0994 10.5279C67.5768 11.0079 66.9314 11.3759 66.1634 11.6319C65.4061 11.8773 64.5368 11.9999 63.5554 11.9999H60.4194ZM61.8274 9.61595H63.3634C63.9288 9.61595 64.4141 9.54661 64.8194 9.40795C65.2354 9.26928 65.5768 9.06661 65.8434 8.79995C66.1208 8.53328 66.3234 8.19728 66.4514 7.79195C66.5901 7.38661 66.6594 6.90661 66.6594 6.35195C66.6594 5.24261 66.3874 4.42661 65.8434 3.90394C65.2994 3.37061 64.4728 3.10394 63.3634 3.10394H61.8274V9.61595Z" fill="#87AA8C"/>
<path d="M72.9335 12.1439C72.4642 12.1439 72.1016 12.0159 71.8456 11.7599C71.5896 11.4933 71.4615 11.1253 71.4615 10.6559V2.20794C71.4615 1.72795 71.5896 1.35995 71.8456 1.10394C72.1122 0.847945 72.4802 0.719945 72.9495 0.719945H76.8856C78.1656 0.719945 79.1522 1.03461 79.8456 1.66395C80.5496 2.28261 80.9016 3.14661 80.9016 4.25595C80.9016 4.97061 80.7415 5.59461 80.4215 6.12795C80.1122 6.65061 79.6589 7.05595 79.0615 7.34395C78.4749 7.62128 77.7496 7.75995 76.8856 7.75995L77.0135 7.47195H77.7815C78.2402 7.47195 78.6456 7.58395 78.9976 7.80795C79.3496 8.02128 79.6429 8.35195 79.8775 8.79995L80.6776 10.2399C80.8482 10.5493 80.9282 10.8533 80.9175 11.1519C80.9069 11.4399 80.7896 11.6799 80.5656 11.8719C80.3522 12.0533 80.0376 12.1439 79.6216 12.1439C79.2056 12.1439 78.8642 12.0586 78.5975 11.8879C78.3415 11.7173 78.1122 11.4506 77.9095 11.0879L76.4536 8.41595C76.3256 8.18128 76.1602 8.02128 75.9576 7.93595C75.7655 7.83995 75.5416 7.79195 75.2856 7.79195H74.4055V10.6559C74.4055 11.1253 74.2829 11.4933 74.0376 11.7599C73.7922 12.0159 73.4242 12.1439 72.9335 12.1439ZM74.4055 5.71195H76.3576C76.9229 5.71195 77.3549 5.59995 77.6535 5.37595C77.9522 5.15195 78.1015 4.80528 78.1015 4.33595C78.1015 3.88795 77.9522 3.55195 77.6535 3.32794C77.3549 3.09328 76.9229 2.97595 76.3576 2.97595H74.4055V5.71195Z" fill="#87AA8C"/>
<path d="M87.7504 12.1759C86.9291 12.1759 86.2038 12.0746 85.5744 11.8719C84.9451 11.6586 84.4118 11.3439 83.9744 10.9279C83.5478 10.5119 83.2224 9.99461 82.9984 9.37595C82.7851 8.74661 82.6784 8.02128 82.6784 7.19995V2.06394C82.6784 1.57328 82.8064 1.20528 83.0624 0.959945C83.3184 0.703945 83.6811 0.575945 84.1504 0.575945C84.6304 0.575945 84.9931 0.703945 85.2384 0.959945C85.4944 1.20528 85.6224 1.57328 85.6224 2.06394V7.23195C85.6224 8.05328 85.8038 8.67195 86.1664 9.08795C86.5291 9.50395 87.0571 9.71195 87.7504 9.71195C88.4331 9.71195 88.9558 9.50395 89.3184 9.08795C89.6811 8.67195 89.8624 8.05328 89.8624 7.23195V2.06394C89.8624 1.57328 89.9851 1.20528 90.2304 0.959945C90.4864 0.703945 90.8491 0.575945 91.3184 0.575945C91.7878 0.575945 92.1451 0.703945 92.3904 0.959945C92.6358 1.20528 92.7584 1.57328 92.7584 2.06394V7.19995C92.7584 8.29861 92.5664 9.22128 92.1824 9.96795C91.8091 10.7039 91.2491 11.2586 90.5024 11.6319C89.7558 11.9946 88.8384 12.1759 87.7504 12.1759Z" fill="#87AA8C"/>
<path d="M96.0872 12.1439C95.6605 12.1439 95.3298 12.0266 95.0952 11.7919C94.8712 11.5573 94.7592 11.2266 94.7592 10.7999V1.91994C94.7592 1.48261 94.8818 1.15195 95.1272 0.927945C95.3725 0.693278 95.7192 0.575945 96.1672 0.575945C96.5405 0.575945 96.8338 0.650612 97.0472 0.799945C97.2712 0.938612 97.4738 1.17328 97.6552 1.50395L100.798 7.20631L103.959 1.50395C104.151 1.17328 104.354 0.938612 104.567 0.799945C104.791 0.650612 105.09 0.575945 105.463 0.575945C105.89 0.575945 106.215 0.693278 106.439 0.927945C106.674 1.15195 106.791 1.48261 106.791 1.91994V10.7999C106.791 11.2266 106.679 11.5573 106.455 11.7919C106.231 12.0266 105.901 12.1439 105.463 12.1439C105.037 12.1439 104.706 12.0266 104.471 11.7919C104.247 11.5573 104.135 11.2266 104.135 10.7999V5.29595H104.471L101.895 9.77595C101.746 10.0106 101.586 10.1866 101.415 10.3039C101.255 10.4213 101.037 10.4799 100.759 10.4799C100.493 10.4799 100.274 10.4213 100.103 10.3039C99.9325 10.1866 99.7778 10.0106 99.6392 9.77595L97.0472 5.27995H97.4152V10.7999C97.4152 11.2266 97.3032 11.5573 97.0792 11.7919C96.8552 12.0266 96.5245 12.1439 96.0872 12.1439Z" fill="#87AA8C"/>
<path d="M113.06 12.1759C112.633 12.1759 112.185 12.1439 111.716 12.0799C111.257 12.0266 110.82 11.9413 110.404 11.8239C109.988 11.7066 109.614 11.5679 109.284 11.4079C108.996 11.2693 108.793 11.0879 108.676 10.8639C108.558 10.6293 108.516 10.3839 108.548 10.1279C108.58 9.87195 108.67 9.64795 108.82 9.45595C108.969 9.25328 109.166 9.11995 109.412 9.05595C109.657 8.98128 109.934 9.01328 110.244 9.15195C110.649 9.34395 111.108 9.49328 111.62 9.59995C112.132 9.70661 112.612 9.75995 113.06 9.75995C113.764 9.75995 114.254 9.66928 114.532 9.48795C114.82 9.29595 114.964 9.06128 114.964 8.78395C114.964 8.53861 114.862 8.34128 114.66 8.19195C114.468 8.04261 114.121 7.91461 113.62 7.80795L111.748 7.40795C110.724 7.19461 109.961 6.82128 109.46 6.28795C108.958 5.75461 108.708 5.06661 108.708 4.22395C108.708 3.66928 108.82 3.16794 109.044 2.71994C109.278 2.26128 109.604 1.87195 110.02 1.55194C110.446 1.23195 110.948 0.986612 111.524 0.815945C112.11 0.634612 112.761 0.543945 113.476 0.543945C114.03 0.543945 114.59 0.607945 115.156 0.735945C115.732 0.853278 116.228 1.03461 116.644 1.27995C116.889 1.40794 117.065 1.58394 117.172 1.80795C117.278 2.03194 117.321 2.26661 117.3 2.51194C117.278 2.74661 117.193 2.95461 117.044 3.13595C116.905 3.31728 116.713 3.43995 116.468 3.50395C116.233 3.55728 115.95 3.51461 115.62 3.37595C115.31 3.23728 114.958 3.13594 114.564 3.07195C114.18 2.99728 113.806 2.95995 113.444 2.95995C113.049 2.95995 112.713 3.00795 112.436 3.10394C112.158 3.18928 111.945 3.31728 111.796 3.48795C111.657 3.65861 111.588 3.85595 111.588 4.07995C111.588 4.30395 111.678 4.49595 111.86 4.65595C112.052 4.80528 112.398 4.93328 112.9 5.03995L114.756 5.43995C115.79 5.66395 116.564 6.03195 117.076 6.54395C117.588 7.05595 117.844 7.72261 117.844 8.54395C117.844 9.09861 117.732 9.59995 117.508 10.0479C117.284 10.4959 116.964 10.8799 116.548 11.1999C116.132 11.5093 115.63 11.7493 115.044 11.9199C114.457 12.0906 113.796 12.1759 113.06 12.1759Z" fill="#87AA8C"/>
<path fill-rule="evenodd" clip-rule="evenodd" d="M12.5 2C12.5 1.44772 12.9477 1 13.5 1H56.5C57.0523 1 57.5 1.44772 57.5 2C57.5 2.55228 57.0523 3 56.5 3H13.5C12.9477 3 12.5 2.55228 12.5 2Z" fill="#D7AE75"/>
</svg>
